<svg xmlns="http://www.w3.org/2000/svg">
  <symbol id="warning" viewBox="0 0 24 24"><path d="M12 3 2.7 20h18.6L12 3Z" fill="none" stroke="currentColor" stroke-width="2" stroke-linejoin="round"/><path d="M12 9v5m0 3h.01" fill="none" stroke="currentColor" stroke-width="2" stroke-linecap="round"/></symbol>
  <symbol id="chevron-up" viewBox="0 0 24 24"><path d="m6 15 6-6 6 6" fill="none" stroke="currentColor" stroke-width="2" stroke-linecap="round" stroke-linejoin="round"/></symbol>
  <symbol id="help" viewBox="0 0 24 24"><circle cx="12" cy="12" r="9" fill="none" stroke="currentColor" stroke-width="2"/><path d="M9.8 9a2.4 2.4 0 1 1 3.4 2.2c-.8.4-1.2.9-1.2 1.8m0 3h.01" fill="none" stroke="currentColor" stroke-width="2" stroke-linecap="round"/></symbol>
  <symbol id="tracking" viewBox="0 0 24 24"><path d="M12 21s7-5.2 7-12a7 7 0 1 0-14 0c0 6.8 7 12 7 12Z" fill="none" stroke="currentColor" stroke-width="2"/><circle cx="12" cy="9" r="2.5" fill="none" stroke="currentColor" stroke-width="2"/></symbol>
  <symbol id="history" viewBox="0 0 24 24"><path d="M4 5v5h5M5.5 9A8 8 0 1 1 4 14" fill="none" stroke="currentColor" stroke-width="2" stroke-linecap="round" stroke-linejoin="round"/><path d="M12 7v5l3 2" fill="none" stroke="currentColor" stroke-width="2" stroke-linecap="round"/></symbol>
  <symbol id="vehicle" viewBox="0 0 24 24"><path d="m5 16-1-2v-3l2-5h12l2 5v3l-1 2M6 16v2m12-2v2M5 12h14M8 13h.01M16 13h.01" fill="none" stroke="currentColor" stroke-width="2" stroke-linecap="round" stroke-linejoin="round"/></symbol>
  <symbol id="profile" viewBox="0 0 24 24"><circle cx="12" cy="8" r="4" fill="none" stroke="currentColor" stroke-width="2"/><path d="M4.5 21a7.5 7.5 0 0 1 15 0" fill="none" stroke="currentColor" stroke-width="2" stroke-linecap="round"/></symbol>
  <symbol id="trophy" viewBox="0 0 24 24"><path d="M8 4h8v4a4 4 0 0 1-8 0V4Zm4 8v4m-4 4h8m-4-4H9m3 0h3M8 6H4v1a4 4 0 0 0 4 4m8-5h4v1a4 4 0 0 1-4 4" fill="none" stroke="currentColor" stroke-width="2" stroke-linecap="round" stroke-linejoin="round"/></symbol>
  <symbol id="plans" viewBox="0 0 24 24"><rect x="3" y="5" width="18" height="14" rx="2" fill="none" stroke="currentColor" stroke-width="2"/><path d="M3 10h18M7 15h4" fill="none" stroke="currentColor" stroke-width="2" stroke-linecap="round"/></symbol>
  <symbol id="community" viewBox="0 0 24 24"><path d="M8 18H5a2 2 0 0 1-2-2v-5a4 4 0 0 1 4-4h1m8 11h3a2 2 0 0 0 2-2v-5a4 4 0 0 0-4-4h-1" fill="none" stroke="currentColor" stroke-width="2" stroke-linecap="round"/><circle cx="12" cy="7" r="3" fill="none" stroke="currentColor" stroke-width="2"/><path d="M7 21v-2a5 5 0 0 1 10 0v2" fill="none" stroke="currentColor" stroke-width="2" stroke-linecap="round"/></symbol>
  <symbol id="search" viewBox="0 0 24 24"><circle cx="11" cy="11" r="7" fill="none" stroke="currentColor" stroke-width="2"/><path d="m16 16 4 4" fill="none" stroke="currentColor" stroke-width="2" stroke-linecap="round"/></symbol>
  <symbol id="qr-code" viewBox="0 0 24 24"><path d="M3 3h7v7H3V3Zm11 0h7v7h-7V3ZM3 14h7v7H3v-7Zm12 0h2v2h-2v-2Zm4 0h2v4h-2v-4Zm-5 4h4v3h-4v-3Zm5 2h2v1h-2v-1Z" fill="none" stroke="currentColor" stroke-width="2" stroke-linejoin="round"/></symbol>
  <symbol id="cube" viewBox="0 0 24 24"><path d="m12 2 9 5-9 5-9-5 9-5Zm-9 5v10l9 5 9-5V7M12 12v10" fill="none" stroke="currentColor" stroke-width="2" stroke-linejoin="round"/></symbol>
  <symbol id="navigation" viewBox="0 0 24 24"><path d="m21 3-8 18-2.5-7.5L3 11l18-8Z" fill="none" stroke="currentColor" stroke-width="2" stroke-linecap="round" stroke-linejoin="round"/></symbol>
  <symbol id="location" viewBox="0 0 24 24"><circle cx="12" cy="12" r="7" fill="none" stroke="currentColor" stroke-width="2"/><circle cx="12" cy="12" r="2" fill="currentColor"/><path d="M12 2v3m0 14v3M2 12h3m14 0h3" fill="none" stroke="currentColor" stroke-width="2" stroke-linecap="round"/></symbol>
  <symbol id="layers" viewBox="0 0 24 24"><path d="m12 3 9 5-9 5-9-5 9-5Z" fill="none" stroke="currentColor" stroke-width="2" stroke-linejoin="round"/><path d="m3 12 9 5 9-5M3 16l9 5 9-5" fill="none" stroke="currentColor" stroke-width="2" stroke-linecap="round" stroke-linejoin="round"/></symbol>
  <symbol id="traffic" viewBox="0 0 24 24"><rect x="7" y="2" width="10" height="20" rx="3" fill="none" stroke="currentColor" stroke-width="2"/><circle cx="12" cy="7" r="1.5" fill="currentColor"/><circle cx="12" cy="12" r="1.5" fill="currentColor"/><circle cx="12" cy="17" r="1.5" fill="currentColor"/></symbol>
</svg>
